# xmcd
#
# Track frame offsets: 
#        150
#        15787
#        33232
#        47435
#        64967
#        85255
#        101695
#        121282
#        137562
#        155017
#        171222
#
# Disc length: 2547 seconds
#
# Revision: 4
# Processed by: cddbd v1.5.2PL0 Copyright (c) Steve Scherf et al.
# Submitted via: ExactAudioCopy v0.95b4
#
DISCID=8309f10b,8609f30b
DTITLE=Charlie Daniels - Homesick Heroes
DYEAR=1988
DGENRE=Country
TTITLE0=Boogie Woogie Fiddle Country Blues
TTITLE1=Alligator
TTITLE2=Get Me Back to Dixie
TTITLE3=Boogie Woogie Man
TTITLE4=Cowboy Hat in Dallas
TTITLE5=Big Bad John
TTITLE6=Midnight Train
TTITLE7=Honky Tonk Avenue
TTITLE8=You Can't Pick Cotton
TTITLE9=Ill Wind
TTITLE10=Uneasy Rider '88
EXTD=
EXTT0=
EXTT1=
EXTT2=
EXTT3=
EXTT4=
EXTT5=
EXTT6=
EXTT7=
EXTT8=
EXTT9=
EXTT10=
PLAYORDER=
